<?xml version="1.0" encoding="utf-8"?>
<!-- Generator: Adobe Illustrator 16.0.0, SVG Export Plug-In . SVG Version: 6.00 Build 0)  -->
<!DOCTYPE svg PUBLIC "-//W3C//DTD SVG 1.1//EN" "http://www.w3.org/Graphics/SVG/1.1/DTD/svg11.dtd">
<svg version="1.1" xmlns="http://www.w3.org/2000/svg" xmlns:xlink="http://www.w3.org/1999/xlink" x="0px" y="0px" width="497px"
	 height="1014px" viewBox="0 0 497 1014" enable-background="new 0 0 497 1014" xml:space="preserve">
<g id="Layer_2">
	<rect x="25" y="37" fill="#FFFFFF" width="446" height="951.5"/>
</g>
<g id="Layer_1">
	<title>Apple-iPhone-6-vector-shape</title>
	<desc>Created with Sketch.</desc>
	<g>
		<path d="M495.501,215H494V75c0-41.421-33.58-75-75.007-75H78.006C36.581,0,3,33.575,3,75v53H1.498C0.671,128,0,128.677,0,129.508
			v37.984C0,168.325,0.665,169,1.498,169H3v46H1.498C0.671,215,0,215.672,0,216.498v72.004C0,289.329,0.665,290,1.498,290H3v17
			H1.498C0.671,307,0,307.672,0,308.498v72.004C0,381.329,0.665,382,1.498,382H3v557.001C3,980.422,36.579,1014,78.006,1014h340.987
			c41.425,0,75.007-33.574,75.007-74.999V290h1.501c0.827,0,1.499-0.671,1.499-1.498v-72.004C497,215.671,496.334,215,495.501,215z
			 M212.994,60h72.011c2.212,0,3.995,1.791,3.995,4c0,2.205-1.789,4-3.995,4h-72.011c-2.211,0-3.994-1.791-3.994-4
			C209,61.796,210.788,60,212.994,60z M248,983c-20.987,0-38-17.013-38-38c0-20.986,17.013-38,38-38c20.986,0,38,17.014,38,38
			C286,965.987,268.987,983,248,983z M464,889H33V123h431V889z"/>
		<circle cx="248" cy="945" r="34"/>
	</g>
	<circle cx="170" cy="64" r="8"/>
	<circle cx="249" cy="32" r="5"/>
</g>
</svg>
